<svg xmlns="http://www.w3.org/2000/svg" viewBox="0 0 64 64" role="img" aria-label="Caraffa filtrante con goccia d'acqua">
  <defs>
    <linearGradient id="bg" x1="10" x2="54" y1="8" y2="58" gradientUnits="userSpaceOnUse">
      <stop offset="0" stop-color="#eff8ff" />
      <stop offset="1" stop-color="#b9e6ff" />
    </linearGradient>
    <linearGradient id="water" x1="18" x2="44" y1="22" y2="50" gradientUnits="userSpaceOnUse">
      <stop offset="0" stop-color="#62d4ff" />
      <stop offset="1" stop-color="#118ab2" />
    </linearGradient>
  </defs>
  <rect width="64" height="64" rx="16" fill="url(#bg)" />
  <path d="M21 16h14c5.2 0 9 3.8 9 9v25c0 2.2-1.8 4-4 4H24c-2.2 0-4-1.8-4-4V16Z" fill="#ffffff" stroke="#0d3b66" stroke-linejoin="round" stroke-width="3" />
  <path d="M35 16h8c4.4 0 8 3.6 8 8v7h-7" fill="none" stroke="#0d3b66" stroke-linecap="round" stroke-linejoin="round" stroke-width="3" />
  <path d="M24 33h17v16H24Z" fill="url(#water)" />
  <path d="M24 28h17" fill="none" stroke="#7dd3fc" stroke-linecap="round" stroke-width="3" />
  <path d="M29.5 25.5c0-3.5 2.8-6.8 5.3-10 2.5 3.2 5.2 6.5 5.2 10a5.3 5.3 0 1 1-10.5 0Z" fill="#0d3b66" opacity="0.1" />
  <path d="M28 24.5c0-3.1 2.5-6 4.7-8.8 2.2 2.8 4.7 5.7 4.7 8.8a4.7 4.7 0 1 1-9.4 0Z" fill="#0d3b66" />
  <path d="M32 19.5c-.8 1.2-1.8 2.6-1.8 4.1a1.8 1.8 0 0 0 3.6 0c0-.5-.2-1.1-.5-1.7" fill="none" stroke="#b9e6ff" stroke-linecap="round" stroke-width="2" />
</svg>
