<?xml version="1.0" encoding="iso-8859-1"?>
<!-- Uploaded to: SVG Repo, www.svgrepo.com, Generator: SVG Repo Mixer Tools -->
<svg height="800px" width="800px" version="1.1" id="Layer_1" xmlns="http://www.w3.org/2000/svg" xmlns:xlink="http://www.w3.org/1999/xlink" 
	 viewBox="0 0 512 512" xml:space="preserve">
<path style="fill:#FFC913;" d="M256.001,60.711c107.884,0,195.288,87.405,195.288,195.288s-87.405,195.288-195.288,195.288
	S60.713,363.884,60.713,256S148.117,60.711,256.001,60.711z"/>
<path style="fill:#FFD40B;" d="M187.385,256c0-85.682,55.216-158.268,131.952-184.589c-19.885-6.82-41.134-10.699-63.336-10.699
	C148.118,60.712,60.713,148.116,60.713,256c0,107.883,87.405,195.288,195.288,195.288c22.202,0,43.453-3.879,63.336-10.699
	C242.602,414.268,187.385,341.681,187.385,256z"/>
<path style="fill:#FDB51E;" d="M256.001,7.931C393.019,7.931,504.07,118.981,504.07,256S393.019,504.068,256.001,504.068
	S7.931,393.019,7.931,256S118.982,7.931,256.001,7.931z M451.289,256c0-107.884-87.405-195.288-195.288-195.288
	S60.713,148.116,60.713,256s87.405,195.288,195.288,195.288S451.289,363.884,451.289,256z"/>
<path d="M256.001,512c-68.387,0-132.676-26.626-181.025-74.975S0.001,324.387,0.001,256S26.627,123.324,74.976,74.975
	S187.613,0,256.001,0c68.387,0,132.676,26.627,181.024,74.975c48.349,48.349,74.975,112.637,74.975,181.025
	s-26.628,132.676-74.975,181.025C388.675,485.372,324.387,512,256.001,512z M256.001,15.861c-64.15,0-124.456,24.977-169.809,70.33
	S15.862,191.849,15.862,256s24.977,124.457,70.33,169.809s105.658,70.33,169.809,70.33c64.15,0,124.456-24.977,169.809-70.33
	S496.139,320.15,496.139,256s-24.977-124.456-70.33-169.809S320.15,15.861,256.001,15.861z"/>
<path d="M256.001,459.219c-54.296,0-105.332-21.134-143.709-59.511c-38.375-38.376-59.511-89.413-59.511-143.709
	s21.134-105.332,59.511-143.708S201.705,52.78,256.001,52.78c54.297,0,105.332,21.134,143.709,59.511
	c38.375,38.375,59.51,89.412,59.51,143.708s-21.134,105.332-59.51,143.709C361.333,438.084,310.296,459.219,256.001,459.219z
	 M256.001,68.643C152.691,68.643,68.642,152.69,68.642,256s84.048,187.359,187.359,187.359S443.359,359.311,443.359,256
	C443.358,152.69,359.31,68.643,256.001,68.643z"/>
<g>
	<path style="fill:#E7ECED;" d="M387.952,234.888c11.611,0,21.112,9.501,21.112,21.112c0,11.611-9.501,21.112-21.112,21.112
		c-11.611,0-21.112-9.501-21.112-21.112C366.84,244.389,376.341,234.888,387.952,234.888z"/>
	<path style="fill:#E7ECED;" d="M124.049,234.888c11.611,0,21.112,9.501,21.112,21.112c0,11.611-9.501,21.112-21.112,21.112
		s-21.112-9.501-21.112-21.112C102.937,244.389,112.437,234.888,124.049,234.888z"/>
</g>
<path d="M124.049,285.043c-16.014,0-29.043-13.028-29.043-29.043s13.028-29.043,29.043-29.043s29.043,13.028,29.043,29.043
	C153.092,272.014,140.063,285.043,124.049,285.043z M124.049,242.818c-7.269,0-13.182,5.913-13.182,13.182
	c0,7.269,5.913,13.182,13.182,13.182c7.269,0,13.182-5.913,13.182-13.182C137.231,248.731,131.318,242.818,124.049,242.818z"/>
<path d="M387.952,285.043c-16.014,0-29.043-13.028-29.043-29.043s13.028-29.043,29.043-29.043s29.043,13.028,29.043,29.043
	C416.995,272.014,403.965,285.043,387.952,285.043z M387.952,242.818c-7.269,0-13.182,5.913-13.182,13.182
	c0,7.269,5.913,13.182,13.182,13.182c7.269,0,13.182-5.913,13.182-13.182C401.134,248.731,395.221,242.818,387.952,242.818z"/>
<path style="fill:#FFFFFF;" d="M297.697,343.074h-39.058c-17.164,0-31.128-13.964-31.128-31.128v-26.905h40.1v-15.861h-40.099
	v-31.642h40.1v-15.861h-40.1v-26.904c0-17.164,13.964-31.128,31.128-31.128h39.058c17.163,0,31.127,13.964,31.127,31.128h15.861
	c0-25.91-21.079-46.989-46.988-46.989H258.64c-25.91,0-46.989,21.079-46.989,46.989v26.905h-34.821v15.861h34.821v31.642h-34.821
	v15.861h34.821v26.905c0,25.91,21.079,46.989,46.989,46.989h39.058c25.909,0,46.988-21.079,46.988-46.989h-15.861
	C328.824,329.111,314.861,343.074,297.697,343.074z"/>
</svg>